<?xml version="1.0" encoding="iso-8859-1"?>
<!-- Generator: Adobe Illustrator 17.0.0, SVG Export Plug-In . SVG Version: 6.00 Build 0)  -->
<!DOCTYPE svg PUBLIC "-//W3C//DTD SVG 1.1//EN" "http://www.w3.org/Graphics/SVG/1.1/DTD/svg11.dtd">
<svg version="1.1" id="Capa_1" xmlns="http://www.w3.org/2000/svg" xmlns:xlink="http://www.w3.org/1999/xlink" x="0px" y="0px"
	 width="64px" height="64px" viewBox="0 0 64 64" style="enable-background:new 0 0 64 64;" xml:space="preserve">
<path d="M25.556,32l-10.74,10.74c-1.779,1.78-1.779,4.667,0,6.446c1.778,1.778,4.665,1.778,6.443,0L32,38.444l10.739,10.742
	c1.78,1.778,4.665,1.778,6.444,0c1.781-1.78,1.779-4.667,0-6.446L38.444,32l10.74-10.738c1.78-1.781,1.78-4.667,0-6.446
	c-1.78-1.781-4.665-1.781-6.445,0L32,25.557L21.259,14.816c-1.778-1.781-4.665-1.781-6.444,0c-1.779,1.779-1.779,4.662,0,6.442
	L25.556,32z"/>
</svg>
